# xmcd CD database file
#
# Track frame offsets:
#	150
#	21527
#	54133
#	84866
#	111083
#	139339
#	167508
#	192463
#	226773
#	260785
#	283498
#
# Disc length: 3993 seconds
#
# Revision: 0
# Processed by: cddbd v1.5.2PL0 Copyright (c) Steve Scherf et al.
# Submitted via: CDex 1.51
#
DISCID=9a0f970b
DTITLE=Albert ''Tootie'' Heath, Ethan Iverson, Ben Street - Live At Smalls
DYEAR=2009
DGENRE=Jazz
TTITLE0=Pound Cake
TTITLE1=Good Bait
TTITLE2=All The Things You Are
TTITLE3=Laura
TTITLE4=Dance Of The Infidels
TTITLE5=Out Of Nowhere
TTITLE6=Little Melonae
TTITLE7=A Flower Is A Lovesome Thing
TTITLE8=Confirmation
TTITLE9=Chelsea Bridge
TTITLE10=Oh, Lady Be Good
EXTD=YEAR: 2009
EXTT0=
EXTT1=
EXTT2=
EXTT3=
EXTT4=
EXTT5=
EXTT6=
EXTT7=
EXTT8=
EXTT9=
EXTT10=
PLAYORDER=
